<svg width="553" height="134" viewBox="0 0 553 134" fill="none" xmlns="http://www.w3.org/2000/svg">
<path d="M171.8 33.0996C181.4 33.0996 188.8 34.7996 193.9 38.1996C199 41.5996 201.6 46.8996 201.6 54.0996C201.6 58.5996 200.6 62.1996 198.5 65.0996C196.4 67.8996 193.5 70.0996 189.6 71.6996C190.9 73.2996 192.2 75.0996 193.7 77.1996C195.1 79.2996 196.5 81.3996 197.9 83.6996C199.3 85.8996 200.6 88.2996 201.9 90.6996C203.2 93.0996 204.4 95.4996 205.5 97.8996H189.4C188.2 95.7996 187 93.6996 185.8 91.4996C184.6 89.2996 183.4 87.1996 182.1 85.1996C180.8 83.1996 179.6 81.1996 178.3 79.3996C177.1 77.5996 175.8 75.8996 174.6 74.4996H167.5V97.8996H153.1V34.7996C156.2 34.1996 159.5 33.7996 162.8 33.4996C166.1 33.2996 169.2 33.0996 171.8 33.0996ZM172.6 45.3996C171.6 45.3996 170.6 45.3996 169.8 45.4996C169 45.5996 168.2 45.5996 167.4 45.6996V63.0996H171.5C176.9 63.0996 180.8 62.3996 183.1 61.0996C185.4 59.6996 186.6 57.3996 186.6 54.1996C186.6 51.0996 185.4 48.7996 183 47.4996C180.7 46.0996 177.3 45.3996 172.6 45.3996Z" fill="#142A5B"/>
<path d="M209.1 74C209.1 69.7 209.8 65.9 211.1 62.7C212.4 59.5 214.2 56.8 216.3 54.6C218.5 52.4 220.9 50.8 223.7 49.7C226.5 48.6 229.4 48 232.3 48C239.2 48 244.7 50.1 248.7 54.3C252.7 58.5 254.7 64.7 254.7 72.9C254.7 73.7 254.7 74.6 254.6 75.5C254.5 76.5 254.5 77.3 254.4 78H223.2C223.5 80.8 224.8 83.1 227.2 84.7C229.5 86.4 232.7 87.2 236.6 87.2C239.1 87.2 241.6 87 244 86.5C246.4 86 248.4 85.5 250 84.8L251.8 96C251.1 96.4 250.1 96.7 248.8 97.1C247.6 97.5 246.2 97.8 244.7 98.1C243.2 98.4 241.6 98.6 239.8 98.8C238.1 99 236.3 99.1 234.6 99.1C230.2 99.1 226.4 98.5 223.2 97.2C220 95.9 217.3 94.1 215.2 91.9C213.1 89.7 211.5 87 210.5 83.9C209.6 80.9 209.1 77.5 209.1 74ZM241.5 68.7C241.4 67.5 241.2 66.4 240.9 65.3C240.6 64.2 240 63.2 239.3 62.3C238.6 61.4 237.7 60.7 236.6 60.2C235.5 59.6 234.2 59.4 232.6 59.4C231.1 59.4 229.7 59.7 228.6 60.2C227.5 60.7 226.6 61.4 225.8 62.3C225.1 63.2 224.5 64.2 224.1 65.3C223.7 66.4 223.4 67.6 223.2 68.8H241.5V68.7Z" fill="#142A5B"/>
<path d="M265.4 50.9992C267.7 50.2992 270.8 49.6992 274.5 49.0992C278.2 48.4992 282.1 48.1992 286.1 48.1992C290.2 48.1992 293.7 48.6992 296.4 49.7992C299.1 50.8992 301.3 52.3992 302.9 54.3992C304.5 56.3992 305.6 58.6992 306.3 61.3992C307 64.0992 307.3 67.0992 307.3 70.4992V97.8992H293.5V72.0992C293.5 67.6992 292.9 64.4992 291.7 62.6992C290.5 60.8992 288.3 59.8992 285.1 59.8992C284.1 59.8992 283.1 59.8992 282 59.9992C280.9 60.0992 279.9 60.1992 279 60.2992V97.7992H265.2V50.9992H265.4Z" fill="#142A5B"/>
<path d="M319.4 37.2L333.2 35V49.3H349.7V60.8H333.2V77.9C333.2 80.8 333.7 83.1 334.7 84.8C335.7 86.5 337.8 87.4 340.8 87.4C342.3 87.4 343.8 87.3 345.4 87C347 86.7 348.4 86.3 349.7 85.8L351.6 96.5C349.9 97.2 348.1 97.8 346.1 98.3C344.1 98.8 341.6 99 338.6 99C334.8 99 331.7 98.5 329.3 97.5C326.8 96.5 324.9 95.1 323.4 93.2C321.9 91.4 320.9 89.2 320.3 86.6C319.7 84 319.4 81.1 319.4 78V37.2Z" fill="#142A5B"/>
<path d="M376.5 48C380.6 48 384 48.5 386.7 49.4C389.4 50.3 391.6 51.7 393.2 53.4C394.8 55.1 396 57.2 396.7 59.7C397.4 62.2 397.7 64.9 397.7 67.9V96.5C395.7 96.9 393 97.4 389.5 98C386 98.6 381.7 98.9 376.7 98.9C373.6 98.9 370.7 98.6 368.2 98.1C365.6 97.5 363.4 96.6 361.6 95.4C359.8 94.1 358.3 92.5 357.3 90.5C356.3 88.5 355.8 86 355.8 83C355.8 80.2 356.4 77.8 357.5 75.8C358.6 73.8 360.2 72.3 362.1 71.1C364 69.9 366.2 69.1 368.7 68.6C371.2 68.1 373.7 67.8 376.4 67.8C378.2 67.8 379.8 67.9 381.2 68C382.6 68.2 383.7 68.4 384.6 68.6V67.3C384.6 65 383.9 63.1 382.5 61.7C381.1 60.3 378.6 59.6 375.1 59.6C372.8 59.6 370.4 59.8 368.2 60.1C365.9 60.4 363.9 60.9 362.3 61.5L360.5 50.4C361.3 50.2 362.3 49.9 363.5 49.6C364.7 49.3 366 49.1 367.4 48.9C368.8 48.7 370.3 48.5 371.9 48.3C373.3 48.1 374.9 48 376.5 48ZM377.6 88.3C379 88.3 380.2 88.3 381.5 88.2C382.7 88.1 383.7 88 384.5 87.9V77.5C383.9 77.4 383.1 77.3 382 77.1C380.9 77 379.9 76.9 379 76.9C377.7 76.9 376.5 77 375.3 77.1C374.2 77.3 373.2 77.5 372.3 78C371.4 78.4 370.8 79 370.3 79.8C369.8 80.5 369.6 81.5 369.6 82.6C369.6 84.8 370.3 86.2 371.8 87.1C373.1 87.9 375.1 88.3 377.6 88.3Z" fill="#142A5B"/>
<path d="M446.6 58.4992C445.5 59.6992 444 61.3992 442.1 63.4992C440.2 65.5992 438.2 67.8992 436 70.3992C433.8 72.8992 431.7 75.5992 429.5 78.2992C427.3 81.0992 425.3 83.7992 423.5 86.2992H447V97.7992H406.8V89.6992C408.1 87.4992 409.6 85.0992 411.5 82.4992C413.3 79.8992 415.2 77.3992 417.2 74.7992C419.2 72.1992 421.2 69.6992 423.2 67.2992C425.2 64.8992 427 62.6992 428.7 60.6992H408V49.1992H446.6V58.4992Z" fill="#142A5B"/>
<path d="M500.4 73.4996C500.4 77.2996 499.8 80.7996 498.7 83.9996C497.6 87.1996 496 89.8996 493.9 92.0996C491.8 94.3996 489.3 96.0996 486.4 97.2996C483.5 98.4996 480.2 99.0996 476.6 99.0996C473 99.0996 469.8 98.4996 466.9 97.2996C464 96.0996 461.5 94.2996 459.4 92.0996C457.3 89.8996 455.7 87.0996 454.5 83.9996C453.3 80.7996 452.7 77.2996 452.7 73.4996C452.7 69.6996 453.3 66.1996 454.5 63.0996C455.7 59.9996 457.4 57.2996 459.5 55.0996C461.6 52.8996 464.2 51.1996 467.1 49.8996C470 48.6996 473.2 48.0996 476.7 48.0996C480.2 48.0996 483.4 48.6996 486.4 49.8996C489.3 51.0996 491.8 52.8996 493.9 55.0996C496 57.2996 497.6 59.9996 498.8 63.0996C499.8 66.1996 500.4 69.6996 500.4 73.4996ZM486.4 73.4996C486.4 69.1996 485.6 65.8996 483.9 63.4996C482.2 61.0996 479.8 59.7996 476.6 59.7996C473.5 59.7996 471 60.9996 469.3 63.4996C467.6 65.8996 466.7 69.2996 466.7 73.4996C466.7 77.7996 467.6 81.0996 469.3 83.5996C471 86.0996 473.5 87.2996 476.6 87.2996C479.7 87.2996 482.2 86.0996 483.9 83.5996C485.5 81.0996 486.4 77.7996 486.4 73.4996Z" fill="#142A5B"/>
<path d="M511 50.9992C513.3 50.2992 516.4 49.6992 520.1 49.0992C523.8 48.4992 527.7 48.1992 531.7 48.1992C535.8 48.1992 539.3 48.6992 542 49.7992C544.7 50.8992 546.9 52.3992 548.5 54.3992C550.1 56.3992 551.2 58.6992 551.9 61.3992C552.6 64.0992 552.9 67.0992 552.9 70.4992V97.8992H539.1V72.0992C539.1 67.6992 538.5 64.4992 537.3 62.6992C536.1 60.8992 533.9 59.8992 530.7 59.8992C529.7 59.8992 528.7 59.8992 527.6 59.9992C526.5 60.0992 525.5 60.1992 524.6 60.2992V97.7992H510.8V50.9992H511Z" fill="#142A5B"/>
<path d="M66.5998 21.6C72.5645 21.6 77.3998 16.7647 77.3998 10.8C77.3998 4.83534 72.5645 0 66.5998 0C60.6351 0 55.7998 4.83534 55.7998 10.8C55.7998 16.7647 60.6351 21.6 66.5998 21.6Z" fill="url(#paint0_radial_1605_2538)"/>
<path d="M66.5999 40.9C70.8525 40.9 74.2999 37.4526 74.2999 33.2C74.2999 28.9474 70.8525 25.5 66.5999 25.5C62.3473 25.5 58.8999 28.9474 58.8999 33.2C58.8999 37.4526 62.3473 40.9 66.5999 40.9Z" fill="url(#paint1_radial_1605_2538)"/>
<path d="M66.5997 57.0998C69.3059 57.0998 71.4997 54.906 71.4997 52.1998C71.4997 49.4936 69.3059 47.2998 66.5997 47.2998C63.8935 47.2998 61.6997 49.4936 61.6997 52.1998C61.6997 54.906 63.8935 57.0998 66.5997 57.0998Z" fill="url(#paint2_radial_1605_2538)"/>
<path d="M66.5996 70.0996C68.5326 70.0996 70.0996 68.5326 70.0996 66.5996C70.0996 64.6666 68.5326 63.0996 66.5996 63.0996C64.6666 63.0996 63.0996 64.6666 63.0996 66.5996C63.0996 68.5326 64.6666 70.0996 66.5996 70.0996Z" fill="url(#paint3_radial_1605_2538)"/>
<path d="M66.5998 133.2C72.5645 133.2 77.3998 128.364 77.3998 122.4C77.3998 116.435 72.5645 111.6 66.5998 111.6C60.6351 111.6 55.7998 116.435 55.7998 122.4C55.7998 128.364 60.6351 133.2 66.5998 133.2Z" fill="url(#paint4_radial_1605_2538)"/>
<path d="M66.5999 107.7C70.8525 107.7 74.2999 104.252 74.2999 99.9998C74.2999 95.7472 70.8525 92.2998 66.5999 92.2998C62.3473 92.2998 58.8999 95.7472 58.8999 99.9998C58.8999 104.252 62.3473 107.7 66.5999 107.7Z" fill="url(#paint5_radial_1605_2538)"/>
<path d="M66.5997 85.8996C69.3059 85.8996 71.4997 83.7058 71.4997 80.9996C71.4997 78.2934 69.3059 76.0996 66.5997 76.0996C63.8935 76.0996 61.6997 78.2934 61.6997 80.9996C61.6997 83.7058 63.8935 85.8996 66.5997 85.8996Z" fill="url(#paint6_radial_1605_2538)"/>
<path d="M66.5996 70.0996C68.5326 70.0996 70.0996 68.5326 70.0996 66.5996C70.0996 64.6666 68.5326 63.0996 66.5996 63.0996C64.6666 63.0996 63.0996 64.6666 63.0996 66.5996C63.0996 68.5326 64.6666 70.0996 66.5996 70.0996Z" fill="url(#paint7_radial_1605_2538)"/>
<path d="M122.5 77.1C128.465 77.1 133.3 72.2647 133.3 66.3C133.3 60.3353 128.465 55.5 122.5 55.5C116.536 55.5 111.7 60.3353 111.7 66.3C111.7 72.2647 116.536 77.1 122.5 77.1Z" fill="url(#paint8_radial_1605_2538)"/>
<path d="M100.1 73.9996C104.353 73.9996 107.8 70.5522 107.8 66.2996C107.8 62.047 104.353 58.5996 100.1 58.5996C95.8473 58.5996 92.3999 62.047 92.3999 66.2996C92.3999 70.5522 95.8473 73.9996 100.1 73.9996Z" fill="url(#paint9_radial_1605_2538)"/>
<path d="M81.0001 71.2004C83.7063 71.2004 85.9001 69.0066 85.9001 66.3004C85.9001 63.5942 83.7063 61.4004 81.0001 61.4004C78.2939 61.4004 76.1001 63.5942 76.1001 66.3004C76.1001 69.0066 78.2939 71.2004 81.0001 71.2004Z" fill="url(#paint10_radial_1605_2538)"/>
<path d="M66.6001 69.7998C68.5331 69.7998 70.1001 68.2328 70.1001 66.2998C70.1001 64.3668 68.5331 62.7998 66.6001 62.7998C64.6671 62.7998 63.1001 64.3668 63.1001 66.2998C63.1001 68.2328 64.6671 69.7998 66.6001 69.7998Z" fill="url(#paint11_radial_1605_2538)"/>
<path d="M10.8 77.1C16.7647 77.1 21.6 72.2647 21.6 66.3C21.6 60.3353 16.7647 55.5 10.8 55.5C4.83533 55.5 0 60.3353 0 66.3C0 72.2647 4.83533 77.1 10.8 77.1Z" fill="url(#paint12_radial_1605_2538)"/>
<path d="M33.2 73.9996C37.4526 73.9996 40.9 70.5522 40.9 66.2996C40.9 62.047 37.4526 58.5996 33.2 58.5996C28.9474 58.5996 25.5 62.047 25.5 66.2996C25.5 70.5522 28.9474 73.9996 33.2 73.9996Z" fill="url(#paint13_radial_1605_2538)"/>
<path d="M52.2999 71.2004C55.0061 71.2004 57.1999 69.0066 57.1999 66.3004C57.1999 63.5942 55.0061 61.4004 52.2999 61.4004C49.5937 61.4004 47.3999 63.5942 47.3999 66.3004C47.3999 69.0066 49.5937 71.2004 52.2999 71.2004Z" fill="url(#paint14_radial_1605_2538)"/>
<path d="M66.6001 69.7998C68.5331 69.7998 70.1001 68.2328 70.1001 66.2998C70.1001 64.3668 68.5331 62.7998 66.6001 62.7998C64.6671 62.7998 63.1001 64.3668 63.1001 66.2998C63.1001 68.2328 64.6671 69.7998 66.6001 69.7998Z" fill="url(#paint15_radial_1605_2538)"/>
<path d="M106 37.6C111.965 37.6 116.8 32.7647 116.8 26.8C116.8 20.8353 111.965 16 106 16C100.036 16 95.2002 20.8353 95.2002 26.8C95.2002 32.7647 100.036 37.6 106 37.6Z" fill="url(#paint16_radial_1605_2538)"/>
<path d="M90.0999 50.3004C94.3525 50.3004 97.7999 46.853 97.7999 42.6004C97.7999 38.3478 94.3525 34.9004 90.0999 34.9004C85.8473 34.9004 82.3999 38.3478 82.3999 42.6004C82.3999 46.853 85.8473 50.3004 90.0999 50.3004Z" fill="url(#paint17_radial_1605_2538)"/>
<path d="M76.6002 61.0002C79.3064 61.0002 81.5002 58.8064 81.5002 56.1002C81.5002 53.394 79.3064 51.2002 76.6002 51.2002C73.894 51.2002 71.7002 53.394 71.7002 56.1002C71.7002 58.8064 73.894 61.0002 76.6002 61.0002Z" fill="url(#paint18_radial_1605_2538)"/>
<path d="M66.5 69.7998C68.433 69.7998 70 68.2328 70 66.2998C70 64.3668 68.433 62.7998 66.5 62.7998C64.567 62.7998 63 64.3668 63 66.2998C63 68.2328 64.567 69.7998 66.5 69.7998Z" fill="url(#paint19_radial_1605_2538)"/>
<path d="M27.0002 116.6C32.9649 116.6 37.8002 111.765 37.8002 105.8C37.8002 99.8353 32.9649 95 27.0002 95C21.0355 95 16.2002 99.8353 16.2002 105.8C16.2002 111.765 21.0355 116.6 27.0002 116.6Z" fill="url(#paint20_radial_1605_2538)"/>
<path d="M42.8001 97.6002C47.0527 97.6002 50.5001 94.1528 50.5001 89.9002C50.5001 85.6476 47.0527 82.2002 42.8001 82.2002C38.5475 82.2002 35.1001 85.6476 35.1001 89.9002C35.1001 94.1528 38.5475 97.6002 42.8001 97.6002Z" fill="url(#paint21_radial_1605_2538)"/>
<path d="M56.3004 81.3C59.0066 81.3 61.2004 79.1062 61.2004 76.4C61.2004 73.6938 59.0066 71.5 56.3004 71.5C53.5942 71.5 51.4004 73.6938 51.4004 76.4C51.4004 79.1062 53.5942 81.3 56.3004 81.3Z" fill="url(#paint22_radial_1605_2538)"/>
<path d="M66.5 69.7998C68.433 69.7998 70 68.2328 70 66.2998C70 64.3668 68.433 62.7998 66.5 62.7998C64.567 62.7998 63 64.3668 63 66.2998C63 68.2328 64.567 69.7998 66.5 69.7998Z" fill="url(#paint23_radial_1605_2538)"/>
<path d="M106.2 116.4C112.165 116.4 117 111.564 117 105.6C117 99.6351 112.165 94.7998 106.2 94.7998C100.235 94.7998 95.3999 99.6351 95.3999 105.6C95.3999 111.564 100.235 116.4 106.2 116.4Z" fill="url(#paint24_radial_1605_2538)"/>
<path d="M90.3997 97.5006C94.6523 97.5006 98.0997 94.0532 98.0997 89.8006C98.0997 85.548 94.6523 82.1006 90.3997 82.1006C86.1471 82.1006 82.6997 85.548 82.6997 89.8006C82.6997 94.0532 86.1471 97.5006 90.3997 97.5006Z" fill="url(#paint25_radial_1605_2538)"/>
<path d="M76.7999 81.2004C79.5061 81.2004 81.6999 79.0066 81.6999 76.3004C81.6999 73.5942 79.5061 71.4004 76.7999 71.4004C74.0937 71.4004 71.8999 73.5942 71.8999 76.3004C71.8999 79.0066 74.0937 81.2004 76.7999 81.2004Z" fill="url(#paint26_radial_1605_2538)"/>
<path d="M66.6997 69.7002C68.6327 69.7002 70.1997 68.1332 70.1997 66.2002C70.1997 64.2672 68.6327 62.7002 66.6997 62.7002C64.7667 62.7002 63.1997 64.2672 63.1997 66.2002C63.1997 68.1332 64.7667 69.7002 66.6997 69.7002Z" fill="url(#paint27_radial_1605_2538)"/>
<path d="M27.1999 37.5004C33.1646 37.5004 37.9999 32.6651 37.9999 26.7004C37.9999 20.7357 33.1646 15.9004 27.1999 15.9004C21.2352 15.9004 16.3999 20.7357 16.3999 26.7004C16.3999 32.6651 21.2352 37.5004 27.1999 37.5004Z" fill="url(#paint28_radial_1605_2538)"/>
<path d="M43.0999 50.2008C47.3525 50.2008 50.7999 46.7534 50.7999 42.5008C50.7999 38.2482 47.3525 34.8008 43.0999 34.8008C38.8473 34.8008 35.3999 38.2482 35.3999 42.5008C35.3999 46.7534 38.8473 50.2008 43.0999 50.2008Z" fill="url(#paint29_radial_1605_2538)"/>
<path d="M56.5997 60.9006C59.3059 60.9006 61.4997 58.7068 61.4997 56.0006C61.4997 53.2944 59.3059 51.1006 56.5997 51.1006C53.8935 51.1006 51.6997 53.2944 51.6997 56.0006C51.6997 58.7068 53.8935 60.9006 56.5997 60.9006Z" fill="url(#paint30_radial_1605_2538)"/>
<path d="M66.6997 69.7002C68.6327 69.7002 70.1997 68.1332 70.1997 66.2002C70.1997 64.2672 68.6327 62.7002 66.6997 62.7002C64.7667 62.7002 63.1997 64.2672 63.1997 66.2002C63.1997 68.1332 64.7667 69.7002 66.6997 69.7002Z" fill="url(#paint31_radial_1605_2538)"/>
<defs>
<radialGradient id="paint0_radial_1605_2538" cx="0" cy="0" r="1" gradientUnits="userSpaceOnUse" gradientTransform="translate(2.58808 113.51) scale(155.777)">
<stop stop-color="#2ABC4A"/>
<stop offset="1" stop-color="#A2EF51"/>
</radialGradient>
<radialGradient id="paint1_radial_1605_2538" cx="0" cy="0" r="1" gradientUnits="userSpaceOnUse" gradientTransform="translate(2.58822 113.51) scale(155.777)">
<stop stop-color="#2ABC4A"/>
<stop offset="1" stop-color="#A2EF51"/>
</radialGradient>
<radialGradient id="paint2_radial_1605_2538" cx="0" cy="0" r="1" gradientUnits="userSpaceOnUse" gradientTransform="translate(2.58809 113.51) scale(155.777)">
<stop stop-color="#2ABC4A"/>
<stop offset="1" stop-color="#A2EF51"/>
</radialGradient>
<radialGradient id="paint3_radial_1605_2538" cx="0" cy="0" r="1" gradientUnits="userSpaceOnUse" gradientTransform="translate(2.58792 113.51) scale(155.777)">
<stop stop-color="#2ABC4A"/>
<stop offset="1" stop-color="#A2EF51"/>
</radialGradient>
<radialGradient id="paint4_radial_1605_2538" cx="0" cy="0" r="1" gradientUnits="userSpaceOnUse" gradientTransform="translate(2.58808 113.51) scale(155.777 155.777)">
<stop stop-color="#2ABC4A"/>
<stop offset="1" stop-color="#A2EF51"/>
</radialGradient>
<radialGradient id="paint5_radial_1605_2538" cx="0" cy="0" r="1" gradientUnits="userSpaceOnUse" gradientTransform="translate(2.58822 113.51) scale(155.777 155.777)">
<stop stop-color="#2ABC4A"/>
<stop offset="1" stop-color="#A2EF51"/>
</radialGradient>
<radialGradient id="paint6_radial_1605_2538" cx="0" cy="0" r="1" gradientUnits="userSpaceOnUse" gradientTransform="translate(2.58809 113.51) scale(155.777)">
<stop stop-color="#2ABC4A"/>
<stop offset="1" stop-color="#A2EF51"/>
</radialGradient>
<radialGradient id="paint7_radial_1605_2538" cx="0" cy="0" r="1" gradientUnits="userSpaceOnUse" gradientTransform="translate(2.58792 113.51) scale(155.777)">
<stop stop-color="#2ABC4A"/>
<stop offset="1" stop-color="#A2EF51"/>
</radialGradient>
<radialGradient id="paint8_radial_1605_2538" cx="0" cy="0" r="1" gradientUnits="userSpaceOnUse" gradientTransform="translate(2.58861 113.51) scale(155.777 155.777)">
<stop stop-color="#2ABC4A"/>
<stop offset="1" stop-color="#A2EF51"/>
</radialGradient>
<radialGradient id="paint9_radial_1605_2538" cx="0" cy="0" r="1" gradientUnits="userSpaceOnUse" gradientTransform="translate(2.58823 113.51) scale(155.777)">
<stop stop-color="#2ABC4A"/>
<stop offset="1" stop-color="#A2EF51"/>
</radialGradient>
<radialGradient id="paint10_radial_1605_2538" cx="0" cy="0" r="1" gradientUnits="userSpaceOnUse" gradientTransform="translate(2.58849 113.511) scale(155.777 155.777)">
<stop stop-color="#2ABC4A"/>
<stop offset="1" stop-color="#A2EF51"/>
</radialGradient>
<radialGradient id="paint11_radial_1605_2538" cx="0" cy="0" r="1" gradientUnits="userSpaceOnUse" gradientTransform="translate(2.58841 113.51) scale(155.777)">
<stop stop-color="#2ABC4A"/>
<stop offset="1" stop-color="#A2EF51"/>
</radialGradient>
<radialGradient id="paint12_radial_1605_2538" cx="0" cy="0" r="1" gradientUnits="userSpaceOnUse" gradientTransform="translate(2.5883 113.51) scale(155.777)">
<stop stop-color="#2ABC4A"/>
<stop offset="1" stop-color="#A2EF51"/>
</radialGradient>
<radialGradient id="paint13_radial_1605_2538" cx="0" cy="0" r="1" gradientUnits="userSpaceOnUse" gradientTransform="translate(2.58832 113.51) scale(155.777)">
<stop stop-color="#2ABC4A"/>
<stop offset="1" stop-color="#A2EF51"/>
</radialGradient>
<radialGradient id="paint14_radial_1605_2538" cx="0" cy="0" r="1" gradientUnits="userSpaceOnUse" gradientTransform="translate(2.58812 113.511) scale(155.777)">
<stop stop-color="#2ABC4A"/>
<stop offset="1" stop-color="#A2EF51"/>
</radialGradient>
<radialGradient id="paint15_radial_1605_2538" cx="0" cy="0" r="1" gradientUnits="userSpaceOnUse" gradientTransform="translate(2.58841 113.51) scale(155.777)">
<stop stop-color="#2ABC4A"/>
<stop offset="1" stop-color="#A2EF51"/>
</radialGradient>
<radialGradient id="paint16_radial_1605_2538" cx="0" cy="0" r="1" gradientUnits="userSpaceOnUse" gradientTransform="translate(2.58859 113.51) scale(155.777 155.777)">
<stop stop-color="#2ABC4A"/>
<stop offset="1" stop-color="#A2EF51"/>
</radialGradient>
<radialGradient id="paint17_radial_1605_2538" cx="0" cy="0" r="1" gradientUnits="userSpaceOnUse" gradientTransform="translate(2.58822 113.511) scale(155.777 155.777)">
<stop stop-color="#2ABC4A"/>
<stop offset="1" stop-color="#A2EF51"/>
</radialGradient>
<radialGradient id="paint18_radial_1605_2538" cx="0" cy="0" r="1" gradientUnits="userSpaceOnUse" gradientTransform="translate(2.58859 113.51) scale(155.777)">
<stop stop-color="#2ABC4A"/>
<stop offset="1" stop-color="#A2EF51"/>
</radialGradient>
<radialGradient id="paint19_radial_1605_2538" cx="0" cy="0" r="1" gradientUnits="userSpaceOnUse" gradientTransform="translate(2.58831 113.51) scale(155.777)">
<stop stop-color="#2ABC4A"/>
<stop offset="1" stop-color="#A2EF51"/>
</radialGradient>
<radialGradient id="paint20_radial_1605_2538" cx="0" cy="0" r="1" gradientUnits="userSpaceOnUse" gradientTransform="translate(2.58851 113.51) scale(155.777 155.777)">
<stop stop-color="#2ABC4A"/>
<stop offset="1" stop-color="#A2EF51"/>
</radialGradient>
<radialGradient id="paint21_radial_1605_2538" cx="0" cy="0" r="1" gradientUnits="userSpaceOnUse" gradientTransform="translate(2.58842 113.511) scale(155.777 155.777)">
<stop stop-color="#2ABC4A"/>
<stop offset="1" stop-color="#A2EF51"/>
</radialGradient>
<radialGradient id="paint22_radial_1605_2538" cx="0" cy="0" r="1" gradientUnits="userSpaceOnUse" gradientTransform="translate(2.58861 113.51) scale(155.777)">
<stop stop-color="#2ABC4A"/>
<stop offset="1" stop-color="#A2EF51"/>
</radialGradient>
<radialGradient id="paint23_radial_1605_2538" cx="0" cy="0" r="1" gradientUnits="userSpaceOnUse" gradientTransform="translate(2.58831 113.51) scale(155.777)">
<stop stop-color="#2ABC4A"/>
<stop offset="1" stop-color="#A2EF51"/>
</radialGradient>
<radialGradient id="paint24_radial_1605_2538" cx="0" cy="0" r="1" gradientUnits="userSpaceOnUse" gradientTransform="translate(2.58817 113.51) scale(155.777 155.777)">
<stop stop-color="#2ABC4A"/>
<stop offset="1" stop-color="#A2EF51"/>
</radialGradient>
<radialGradient id="paint25_radial_1605_2538" cx="0" cy="0" r="1" gradientUnits="userSpaceOnUse" gradientTransform="translate(2.58803 113.511) scale(155.777 155.777)">
<stop stop-color="#2ABC4A"/>
<stop offset="1" stop-color="#A2EF51"/>
</radialGradient>
<radialGradient id="paint26_radial_1605_2538" cx="0" cy="0" r="1" gradientUnits="userSpaceOnUse" gradientTransform="translate(2.58808 113.511) scale(155.777 155.777)">
<stop stop-color="#2ABC4A"/>
<stop offset="1" stop-color="#A2EF51"/>
</radialGradient>
<radialGradient id="paint27_radial_1605_2538" cx="0" cy="0" r="1" gradientUnits="userSpaceOnUse" gradientTransform="translate(2.58802 113.51) scale(155.777)">
<stop stop-color="#2ABC4A"/>
<stop offset="1" stop-color="#A2EF51"/>
</radialGradient>
<radialGradient id="paint28_radial_1605_2538" cx="0" cy="0" r="1" gradientUnits="userSpaceOnUse" gradientTransform="translate(2.58819 113.511) scale(155.777)">
<stop stop-color="#2ABC4A"/>
<stop offset="1" stop-color="#A2EF51"/>
</radialGradient>
<radialGradient id="paint29_radial_1605_2538" cx="0" cy="0" r="1" gradientUnits="userSpaceOnUse" gradientTransform="translate(2.58821 113.511) scale(155.777)">
<stop stop-color="#2ABC4A"/>
<stop offset="1" stop-color="#A2EF51"/>
</radialGradient>
<radialGradient id="paint30_radial_1605_2538" cx="0" cy="0" r="1" gradientUnits="userSpaceOnUse" gradientTransform="translate(2.58808 113.511) scale(155.777)">
<stop stop-color="#2ABC4A"/>
<stop offset="1" stop-color="#A2EF51"/>
</radialGradient>
<radialGradient id="paint31_radial_1605_2538" cx="0" cy="0" r="1" gradientUnits="userSpaceOnUse" gradientTransform="translate(2.58802 113.51) scale(155.777)">
<stop stop-color="#2ABC4A"/>
<stop offset="1" stop-color="#A2EF51"/>
</radialGradient>
</defs>
</svg>
